<svg xmlns="http://www.w3.org/2000/svg" version="1.1" viewBox="467 567 1067 865">
<path transform="translate(511,567)" d="m0 0h184l2 2 1 510 11-10 8-7 7-7h2l1-3 8-7 12-12 8-7 11-11 8-7 53-53 8-7 9-10 20-20 9-11 10-12 7-11 5-10 3-10v-10l-4-8-4-3-4-1-27-1-12-2-9-4-8-6-6-9-1-4v-19l4-11 7-12 9-12 5-7-6-2-11-8-6-5-7-8-7-10-7-16-3-11-1-7v-20l3-16 6-16 8-14 9-11 9-8 10-5 9-2h15l14 3 11 6 8 6v2h2l8 11 5 10 3 12v24l-4 13-7 12-16 21-9 10-18 22-4 4 4 3 17 5 10 1h24l16-3 24-8 17-9 12-8 11-9 12-11 11-13 13-18 4-7v-28l-1-28v-28l3-2 6 1 5 5 6 10 2 5v16l-3 20-6 23-2 3v227l16-12 15-10 20-12 16-8 24-10 21-7 24-6 29-4 22-2h21l36 3 19 3 30 8 24 9 18 8 22 12 16 11 12 9 14 12 19 19 11 14 10 14 11 19 8 16 7 16 7 19 8 31 6 41 1 11v37l-3 27-5 31-9 33-8 21-8 18-10 18-7 11-10 14-10 13-11 12-8 9-8 7-13 11-15 11-17 11-24 13-27 11-18 6-28 7-38 6-22 2h-69l-327-1-1-8 1-2 52-2 7-3 4-6 1-11-4-10-17-29-12-20-19-32-8-13-18-30-13-22-60-100-16-27-13-22-7-11-4 1-11 10h-2v2h-2l1 309 3 7 6 5 7 2 46 1 1 1v9l-1 1h-292l-1-9 1-1 53-2 8-3 5-6 2-9v-807l-3-8-7-6-13-2-45-1-1-7 1-2zm342 37-11 4-9 7-8 9-9 16-6 16-2 12v22l3 14 8 16 10 13 13 11 9 5 4-1 9-10 9-11 10-11 8-10 11-14 6-10 4-13 1-11-2-16-4-11-7-10-10-9-12-6-8-2zm185 83-6 9-14 18-8 8v2l-4 2v2l-4 2-9 8-19 12-19 9-23 7-13 2h-32l-16-3-12-4h-5l-8 9-10 15-4 9-1 4v19l3 5 6 5 8 4 14 2 159 1 1 8h-29l-13 1-13 5-11 7-10 8-14 12-12 11-8 7-13 12-15 14-10 9-32 30-10 9 2 4 17 28 10 17 17 28 9 15 34 56 13 22 14 23 17 28 12 20 13 21 15 25 17 28 10 16 6 10h1v-621zm153 159-23 2-27 7-25 10-20 10-22 14-14 10-13 10-1 2v409l5 9 14 21 8 11 11 14 11 12 10 8 13 8 14 7 20 7 12 2 11 1h33l26-3 26-9 17-9 16-12 5-4 7-8 9-10 9-13 9-16 7-16 7-19 9-35 6-33 2-16 3-43 1-22v-47l-2-36-3-39-8-44-9-31-7-19-10-20-8-12-7-9-11-12-13-11-15-9-17-8-19-6-11-2-13-1z" fill="#ffffff"/>
</svg>