<svg xmlns="http://www.w3.org/2000/svg" version="1.0" width="300.000000pt" height="300.000000pt" viewBox="0 0 300.000000 300.000000" preserveAspectRatio="xMidYMid meet">
<metadata fill="#36bcf7">
Created by potrace 1.10, written by Peter Selinger 2001-2011
</metadata>
<g transform="translate(0.000000,300.000000) scale(0.100000,-0.100000)" fill="#36bcf7" stroke="none">
<path d="M700 2141 c0 -6 24 -11 53 -13 l52 -3 3 -614 c1 -445 -1 -618 -9 -627 -7 -8 -30 -14 -55 -14 -24 0 -44 -4 -44 -10 0 -6 80 -10 220 -10 140 0 220 4 220 10 0 6 -18 10 -40 10 -29 0 -42 5 -50 19 -6 12 -10 107 -10 239 0 196 2 221 18 235 16 15 26 1 160 -224 80 -134 141 -247 138 -255 -4 -9 -21 -14 -51 -14 -25 0 -45 -4 -45 -10 0 -17 591 -13 672 4 198 43 327 176 360 374 24 145 -22 302 -117 397 -136 136 -382 161 -548 55 -26 -16 -50 -30 -52 -30 -10 0 -4 324 6 366 9 34 9 52 0 70 -18 40 -30 19 -24 -40 5 -44 2 -61 -16 -89 -22 -36 -77 -79 -124 -96 -34 -13 -104 -14 -111 -3 -3 5 13 30 34 56 52 62 55 113 11 157 -46 46 -103 33 -136 -31 -29 -57 -11 -145 35 -170 19 -10 19 -11 0 -43 -36 -59 -17 -97 50 -97 88 0 66 -46 -102 -217 -78 -79 -145 -143 -150 -143 -5 0 -7 173 -6 385 l3 385 -172 0 c-102 0 -173 -4 -173 -9z m287 -39 c11 -7 16 -364 14 -979 l-1 -223 -75 0 -75 0 0 599 c0 470 3 600 13 604 19 8 111 7 124 -1z m350 -27 c28 -20 38 -67 21 -98 -24 -45 -77 -97 -92 -91 -36 14 -60 84 -46 134 19 66 68 89 117 55z m221 -806 l-3 -232 -152 254 -153 254 43 43 c23 25 68 66 100 93 48 40 65 49 97 49 21 0 42 5 45 10 4 6 -38 10 -120 10 -70 0 -135 5 -146 10 -24 13 -24 48 0 79 16 20 21 22 41 11 50 -27 171 16 218 78 l27 35 3 -231 c1 -128 1 -336 0 -463z m329 448 c40 -15 88 -58 108 -98 37 -70 47 -125 52 -280 5 -136 3 -166 -16 -240 -29 -116 -62 -167 -130 -201 -97 -50 -206 -34 -272 39 -62 67 -59 50 -59 387 0 348 -8 314 85 363 28 14 61 29 75 34 37 11 121 9 157 -4z m233 -87 c80 -63 126 -153 136 -268 12 -135 -37 -275 -125 -354 -48 -43 -98 -75 -105 -67 -2 2 10 45 27 94 31 88 31 95 32 270 0 190 -11 256 -56 333 -10 18 -19 37 -19 43 0 14 67 -17 110 -51z m-864 -173 c12 -17 54 -86 94 -152 40 -66 90 -147 110 -180 83 -134 130 -214 130 -219 0 -3 -43 -6 -95 -6 l-94 0 -17 33 c-9 17 -72 125 -140 239 -68 113 -124 210 -124 214 0 8 101 104 110 104 3 0 15 -15 26 -33z" fill="#36bcf7"/>
</g>
</svg>